<svg width="112" height="113" viewBox="0 0 112 113" fill="none" xmlns="http://www.w3.org/2000/svg">
<mask id="mask0_1_1973" style="mask-type:luminance" maskUnits="userSpaceOnUse" x="0" y="0" width="112" height="113">
<path d="M55.9617 0.337413C44.9737 0.330727 34.2305 3.60765 25.091 9.75372C15.9515 15.8998 8.8263 24.6389 4.61655 34.8657C0.406806 45.0925 -0.698339 56.3475 1.4409 67.2072C3.58014 78.067 8.86766 88.0435 16.6347 95.875C24.4017 103.706 34.2993 109.041 45.0756 111.204C55.8519 113.367 67.0227 112.261 77.1752 108.027C87.3278 103.792 96.0058 96.6185 102.112 87.4138C108.218 78.209 111.477 67.3864 111.478 56.3149C111.481 41.4746 105.634 27.2409 95.2231 16.7437C84.8122 6.2464 70.6899 0.345094 55.9617 0.337413ZM95.7363 22.8626C102.545 31.0251 106.688 41.1051 107.602 51.7277L95.7363 39.7722V22.8626ZM89.219 16.291H72.4466L60.5765 4.33546C71.1096 5.25885 81.1035 9.43385 89.195 16.291H89.219ZM51.3613 4.33546L39.496 16.291H22.7236C30.813 9.43649 40.803 5.26171 51.3325 4.33546H51.3613ZM16.1871 22.8578V39.7577L4.31228 51.7181C5.2257 41.0952 9.37298 31.0157 16.1871 22.8578ZM16.1871 89.883C15.4492 88.9945 14.7495 88.0916 14.0738 87.1693C8.50294 79.5165 5.12617 70.4683 4.31228 61.0131L16.1871 72.9637V89.883ZM31.0427 102.22C28.9006 101.037 24.813 97.937 22.8338 96.4257H39.6062L51.3229 108.386C44.2112 107.772 37.3044 105.672 31.0427 102.22ZM43.9814 95.7593L44.015 95.7159L55.9953 83.6203L67.9756 95.7159L55.9953 107.826L43.9814 95.7593ZM86.9236 98.275C79.3313 104.001 70.3127 107.496 60.8688 108.372L60.5621 108.4L72.4322 96.4402H89.2046C88.4475 97.0775 87.6791 97.6891 86.8996 98.275H86.9236ZM81.6906 52.4037L60.1261 74.1322L72.2741 86.2036H92.401V92.756L70.4147 92.7946L58.5494 80.9405L55.9617 78.3089L53.3835 80.8874L52.0753 82.1283L40.8713 92.7511H19.5416V86.2133H39.5966L51.8261 73.9922L51.7974 73.9632L49.2527 71.3172L31.2344 52.3796H25.6132L46.6986 73.8425L38.6478 82.051H19.81V71.124L6.67001 57.889L4.68606 55.8706L19.5416 40.9021V19.415H40.8713L55.9617 4.21474L71.0377 19.4054H92.3626V40.8924L95.4679 44.0214L107.237 55.832L92.0703 71.1144V82.0317H73.314L65.2009 74.0308L87.0482 52.3699L81.6906 52.4037ZM97.5573 87.5798C96.9678 88.3668 96.3641 89.1394 95.7363 89.8975V72.9975L107.602 61.0468C106.761 70.6555 103.274 79.8367 97.5333 87.5556L97.5573 87.5798Z" fill="white"/>
</mask>
<g mask="url(#mask0_1_1973)">
<path d="M56.4218 -17.5525H-14.9999V140.448H56.4218V-17.5525Z" fill="black"/>
<path d="M127.005 -17.5525H55.9473V140.448H127.005V-17.5525Z" fill="black"/>
<path d="M25.5749 52.3892L27.1707 53.0072L46.689 73.8424L25.5749 52.3892Z" fill="black"/>
<path d="M31.2152 52.3794L51.8309 73.992L30.7408 52.9298L27.1851 52.983L25.4886 52.3794H31.2152Z" fill="black"/>
<path d="M87.0434 52.3794L85.3949 52.983L65.2009 74.0403L87.0434 52.3794Z" fill="black"/>
<path d="M81.6666 52.3794L60.8065 73.4029L81.8343 52.9298L85.3949 52.983L87.0434 52.3794H81.6666Z" fill="black"/>
<path d="M51.831 73.9727L50.9684 73.9582L44.0725 65.8945L51.831 73.9727Z" fill="black"/>
<path d="M39.6014 86.2131L50.9683 73.9583L51.8501 73.9776L39.6014 86.2131Z" fill="black"/>
<path d="M19.7669 71.0709L18.957 71.3703L4.67651 55.8706L19.7669 71.0709Z" fill="black"/>
<path d="M19.81 82.0412L18.957 71.3701L19.786 71.0659L19.81 82.0412Z" fill="black"/>
<path d="M91.9697 71.0709L92.7795 71.3703L107.065 55.8706L91.9697 71.0709Z" fill="black"/>
<path d="M91.9266 82.0412L92.7796 71.3701L91.9553 71.0659L91.9266 82.0412Z" fill="black"/>
<path d="M19.5273 40.8827L18.7462 40.5254L19.5416 19.4053L19.5273 40.8827Z" fill="black"/>
<path d="M4.67651 55.8705L18.7462 40.5254L19.5464 40.8972L4.67651 55.8705Z" fill="black"/>
<path d="M40.8665 19.3957L40.5646 18.5845L55.9665 4.24365L40.8665 19.3957Z" fill="black"/>
<path d="M19.8436 19.3812L40.5647 18.5845L40.8666 19.415L19.8436 19.3812Z" fill="black"/>
<path d="M71.0521 19.3957L71.354 18.5845L55.9473 4.24365L71.0521 19.3957Z" fill="black"/>
<path d="M92.0751 19.3812L71.354 18.5845L71.0473 19.415L92.0751 19.3812Z" fill="black"/>
<path d="M92.3339 40.8585L93.1198 40.5012L92.3195 19.3811L92.3339 40.8585Z" fill="black"/>
<path d="M107.189 55.8464L93.1198 40.5012L92.3195 40.8682L107.189 55.8464Z" fill="black"/>
<path d="M60.035 74.1079L60.8976 74.0934L67.7935 66.0249L60.035 74.1079Z" fill="black"/>
<path d="M72.2645 86.3435L60.8976 74.0935L60.0159 74.1128L72.2645 86.3435Z" fill="black"/>
<path d="M55.9952 78.2461L56 79.1104L70.362 92.8042L55.9952 78.2461Z" fill="black"/>
<path d="M40.8713 92.7655L56.0001 79.1104L55.9473 78.3088L40.8713 92.7655Z" fill="black"/>
</g>
</svg>
