<svg width="112" height="113" viewBox="0 0 112 113" fill="none" xmlns="http://www.w3.org/2000/svg">
<path d="M55.9617 0.889781C44.9737 0.883095 34.2305 4.16002 25.091 10.3061C15.9515 16.4522 8.8263 25.1913 4.61655 35.4181C0.406806 45.6448 -0.698339 56.8999 1.4409 67.7596C3.58014 78.6193 8.86766 88.5959 16.6347 96.4273C24.4017 104.259 34.2993 109.593 45.0756 111.756C55.8519 113.919 67.0227 112.814 77.1752 108.579C87.3278 104.344 96.0058 97.1709 102.112 87.9661C108.218 78.7614 111.477 67.9388 111.478 56.8672C111.481 42.027 105.634 27.7933 95.2231 17.296C84.8122 6.79877 70.6899 0.897462 55.9617 0.889781ZM95.7363 23.415C102.545 31.5774 106.688 41.6575 107.602 52.2801L95.7363 40.3246V23.415ZM89.219 16.8433H72.4466L60.5765 4.88782C71.1096 5.81122 81.1035 9.98622 89.195 16.8433H89.219ZM51.3613 4.88782L39.496 16.8433H22.7236C30.813 9.98886 40.803 5.81408 51.3325 4.88782H51.3613ZM16.1871 23.4102V40.3101L4.31228 52.2704C5.2257 41.6475 9.37298 31.5681 16.1871 23.4102ZM16.1871 90.4353C15.4492 89.5469 14.7495 88.6439 14.0738 87.7217C8.50294 80.0688 5.12617 71.0207 4.31228 61.5654L16.1871 73.5161V90.4353ZM31.0427 102.772C28.9006 101.589 24.813 98.4894 22.8338 96.978H39.6062L51.3229 108.938C44.2112 108.325 37.3044 106.225 31.0427 102.772ZM43.9814 96.3117L44.015 96.2682L55.9953 84.1727L67.9756 96.2682L55.9953 108.378L43.9814 96.3117ZM86.9236 98.8274C79.3313 104.554 70.3127 108.049 60.8688 108.924L60.5621 108.953L72.4322 96.9925H89.2046C88.4475 97.6299 87.6791 98.2415 86.8996 98.8274H86.9236ZM81.6906 52.9561L60.1261 74.6846L72.2741 86.756H92.401V93.3083L70.4147 93.347L58.5494 81.4929L55.9617 78.8613L53.3835 81.4398L52.0753 82.6807L40.8713 93.3035H19.5416V86.7656H39.5966L51.8261 74.5446L51.7974 74.5156L49.2527 71.8696L31.2344 52.932H25.6132L46.6986 74.3949L38.6478 82.6034H19.81V71.6764L6.67001 58.4413L4.68606 56.423L19.5416 41.4545V19.9674H40.8713L55.9617 4.76711L71.0377 19.9577H92.3626V41.4448L95.4679 44.5737L107.237 56.3844L92.0703 71.6667V82.5841H73.314L65.2009 74.5832L87.0482 52.9223L81.6906 52.9561ZM97.5573 88.1321C96.9678 88.9192 96.3641 89.6917 95.7363 90.4498V73.5499L107.602 61.5992C106.761 71.2079 103.274 80.3891 97.5333 88.108L97.5573 88.1321Z" fill="white"/>
</svg>
